<?xml version="1.0" encoding="utf-8"?>
<!-- Generator: Adobe Illustrator 22.0.1, SVG Export Plug-In . SVG Version: 6.00 Build 0)  -->
<svg version="1.1" id="Layer_1" xmlns="http://www.w3.org/2000/svg" xmlns:xlink="http://www.w3.org/1999/xlink" x="0px" y="0px"
	 viewBox="0 0 131.1 36" style="enable-background:new 0 0 131.1 36;" xml:space="preserve">
<ellipse fill="white" cx="19.6" cy="17.1" rx="1.9" ry="2"/>
<ellipse fill="white" cx="12.8" cy="17.1" rx="1.9" ry="2"/>
<path fill="white" d="M28.5,0H3.8C1.7,0,0,1.6,0,3.7V28c0,2.1,1.7,3.7,3.7,3.7c0,0,0,0,0.1,0h21l-1-3.3l2.4,2.1l2.2,2l4,3.4V3.7
	C32.3,1.6,30.6,0,28.5,0z M21.4,23.5c0,0-0.7-0.8-1.2-1.5c1.3-0.3,2.5-1,3.3-2.1c-0.7,0.4-1.4,0.8-2.1,1.1c-0.9,0.4-1.8,0.6-2.7,0.8
	c-1.6,0.3-3.2,0.3-4.8,0c-0.9-0.2-1.8-0.4-2.7-0.8c-0.4-0.2-0.9-0.4-1.4-0.6c-0.1,0-0.1-0.1-0.2-0.1H9.5C9.3,20.2,9.2,20.1,9,20
	c0.8,1,1.9,1.8,3.2,2.1c-0.6,0.7-1.2,1.5-1.2,1.5c-4.1-0.1-5.6-2.7-5.6-2.7c0.1-3.7,1-7.3,2.7-10.5c1.5-1.2,3.3-1.8,5.2-1.9l0.2,0.2
	C11.7,9,10.1,9.8,8.7,11c0,0,0.4-0.2,1.1-0.5c1.3-0.6,2.7-1,4.2-1.1h0.3c1.2-0.2,2.5-0.2,3.7,0c2,0.2,3.9,0.8,5.6,1.7
	C22.2,10,20.7,9.2,19,8.8l0.3-0.3c1.9,0.1,3.7,0.7,5.2,1.9c1.7,3.2,2.6,6.8,2.7,10.5C25.7,22.5,23.6,23.5,21.4,23.5z"/>
<path fill="white" d="M45.6,7.8h-6.1v6.8l4.1,3.6v-6.6h2.2c1.4,0,2.1,0.7,2.1,1.7v5c0,1-0.6,1.8-2.1,1.8h-6.3v3.8h6.1c3.3,0,6.4-1.6,6.4-5.3v-5.4
	C52,9.4,48.9,7.8,45.6,7.8z M77.8,18.6V13c0-2,3.7-2.5,4.8-0.5l3.4-1.3c-1-2.3-3.3-3.8-5.8-3.7c-3.3,0-6.5,1.9-6.5,5.5v5.6
	c0,3.7,3.2,5.5,6.5,5.5c2.5,0,4.8-1.4,5.9-3.6l-3.7-1.6C81.5,21.1,77.8,20.6,77.8,18.6z M66.6,13.8c-1.3-0.3-2.1-0.7-2.2-1.5
	c0.1-1.9,3-1.9,4.7-0.1l2.7-2c-1.4-1.7-3.4-2.7-5.6-2.6c-3,0-5.9,1.7-5.9,4.8s2.4,4.7,5.1,5.1c1.3,0.2,2.8,0.7,2.8,1.6
	c-0.1,1.7-3.7,1.6-5.4-0.3l-2.6,2.4c1.3,1.8,3.4,2.8,5.6,2.9c3,0,6.3-1.7,6.5-4.8C72.4,15.3,69.5,14.3,66.6,13.8z M54.2,23.9h4.2
	V7.8h-4.1L54.2,23.9L54.2,23.9z M124,7.8h-6.1v6.8l4.1,3.6v-6.6h2.2c1.4,0,2.1,0.7,2.1,1.7v5c0,1-0.6,1.8-2.1,1.8h-6.3v3.8h6.1
	c3.3,0,6.4-1.6,6.4-5.3v-5.4C130.4,9.4,127.3,7.8,124,7.8z M93.9,7.6c-3.4,0-6.8,1.8-6.8,5.5v5.5c0,3.7,3.4,5.5,6.8,5.5
	s6.8-1.8,6.8-5.5v-5.5C100.7,9.4,97.3,7.6,93.9,7.6z M96.6,18.6c0,1.2-1.3,1.8-2.6,1.8c-1.3,0-2.7-0.6-2.7-1.8v-5.5
	c0-1.2,1.3-1.8,2.6-1.8c1.3,0,2.7,0.6,2.7,1.8V18.6z M115.6,13.1c-0.1-3.8-2.7-5.3-6.1-5.3h-6.6v16.1h4.2v-5.1h0.7l3.8,5.1h5.2
	l-4.5-5.5C114.4,17.8,115.6,16.1,115.6,13.1z M109.6,15.3h-2.4v-3.7h2.4c1-0.1,1.9,0.7,2,1.7s-0.7,1.9-1.7,2
	C109.8,15.3,109.7,15.3,109.6,15.3z"/>
</svg>
